<svg width="122" height="26" viewBox="0 0 122 26" fill="none" xmlns="http://www.w3.org/2000/svg">
<path d="M38.6443 13.9485C38.6443 9.94852 41.8871 6.80566 46.0829 6.80566C48.29 6.80566 50.5243 7.86852 51.5329 9.42138C51.8329 9.88424 51.9686 10.2657 51.9686 10.6742C51.969 10.9464 51.9156 11.216 51.8117 11.4676C51.7077 11.7192 51.5552 11.9478 51.3628 12.1403C51.1704 12.3328 50.9419 12.4855 50.6904 12.5897C50.4389 12.6938 50.1693 12.7473 49.8971 12.7471C49.1829 12.7471 48.6714 12.53 48.29 12.0657C47.7729 11.4385 47.0043 11.1114 46.1371 11.1114C44.5029 11.1114 43.44 12.2285 43.44 13.9442C43.44 15.66 44.5014 16.7828 46.1371 16.7828C46.5426 16.7821 46.9435 16.6969 47.3141 16.5326C47.6848 16.3682 48.0172 16.1285 48.29 15.8285C48.5767 15.5184 48.9495 15.3009 49.3607 15.2039C49.7718 15.1069 50.2025 15.1348 50.5976 15.2842C50.9927 15.4335 51.3343 15.6973 51.5785 16.0419C51.8228 16.3866 51.9586 16.7962 51.9686 17.2185C51.9731 17.6361 51.8495 18.0449 51.6143 18.39C50.4429 20.1342 48.4814 21.0871 46.0829 21.0871C41.8871 21.0885 38.6443 17.9542 38.6443 13.9485Z" fill="#FF4C4C"/>
<path d="M68.2882 13.9485C68.2882 17.9271 65.0182 21.0914 60.8497 21.0914C56.6811 21.0914 53.4382 17.9585 53.4382 13.9485C53.4382 9.93852 56.6811 6.80566 60.8497 6.80566C65.0182 6.80566 68.2882 9.96709 68.2882 13.9485ZM58.234 13.9485C58.234 15.6385 59.2968 16.7828 60.8768 16.7828C62.4025 16.7828 63.4925 15.5842 63.4925 13.9485C63.4925 12.3128 62.3754 11.1157 60.8768 11.1157C59.324 11.1157 58.234 12.2585 58.234 13.9485Z" fill="#FF4C4C"/>
<path d="M80.0039 9.01725C80.0039 10.2701 79.1868 11.1158 77.8511 11.303C76.1625 11.5487 75.3439 12.5887 75.3439 14.5458V18.7144C75.3439 20.0772 74.3353 21.0844 73.0011 21.0844C71.6668 21.0844 70.6582 20.0758 70.6582 18.7144V9.17582C70.6582 7.81296 71.6382 6.80582 72.9439 6.80582C73.4264 6.79663 73.8985 6.94631 74.2875 7.23181C74.6765 7.51732 74.9609 7.92281 75.0968 8.38582C75.8596 7.4601 76.8682 6.91439 77.9539 6.91439C79.1525 6.91439 79.9968 7.75868 79.9968 9.01153" fill="#FF4C4C"/>
<path d="M93.5995 12.8599V18.747C93.5995 20.0827 92.6452 21.0627 91.3381 21.0627C90.8952 21.0743 90.459 20.9535 90.0852 20.7158C89.7114 20.4781 89.4169 20.1343 89.2395 19.7285C88.2852 20.5999 86.9538 21.0913 85.4252 21.0913C82.6195 21.0913 80.7109 19.4027 80.7109 16.8956C80.7109 14.3342 82.6995 12.8085 86.0509 12.8085H88.9081V12.5899C88.9081 11.4727 88.1452 10.8456 86.8095 10.8456C86.0393 10.8489 85.2884 11.0866 84.6566 11.527C84.1109 11.8813 83.8124 11.9899 83.4038 11.9899C83.1489 11.997 82.8951 11.9528 82.6575 11.8602C82.4199 11.7675 82.2033 11.6282 82.0204 11.4504C81.8376 11.2726 81.6922 11.06 81.593 10.8251C81.4937 10.5902 81.4425 10.3378 81.4424 10.0827C81.4424 9.40132 81.7967 8.7756 82.4509 8.25703C83.5938 7.33132 85.3395 6.81274 87.3281 6.81274C91.3609 6.81274 93.5952 8.99274 93.5952 12.8613L93.5995 12.8599ZM88.9081 15.777V15.6685H86.7066C85.9166 15.6685 85.4538 16.0499 85.4538 16.7042C85.4538 17.3856 85.9709 17.767 86.8438 17.767C88.0695 17.767 88.9138 16.977 88.9138 15.7785" fill="#FF4C4C"/>
<path d="M96.5425 18.7171V2.37C96.5425 1.00714 97.5239 0 98.8853 0C100.221 0 101.228 1.00857 101.228 2.37V18.7171C101.228 20.08 100.22 21.0886 98.8853 21.0886C97.551 21.0886 96.5425 20.08 96.5425 18.7171Z" fill="#FF4C4C"/>
<path d="M117.85 9.07289C117.841 9.46386 117.738 9.84687 117.55 10.19L111.883 21.4972C110.276 24.6857 108.559 25.9929 105.943 25.9929C105.18 25.9929 104.526 25.85 104.063 25.5843C103.749 25.4091 103.49 25.1514 103.312 24.8392C103.134 24.527 103.045 24.1721 103.054 23.8129C103.054 22.6415 103.98 21.7957 105.153 21.7957H105.234C106.297 21.7957 106.979 21.4686 107.469 20.4072L107.85 19.5629L103.517 10.19C103.33 9.84685 103.227 9.46385 103.217 9.07289C103.224 8.47508 103.464 7.90354 103.887 7.4808C104.309 7.05807 104.881 6.81778 105.479 6.81146C105.91 6.80292 106.335 6.92255 106.698 7.15522C107.062 7.38789 107.348 7.72314 107.522 8.11861L110.492 14.8215L113.544 8.11861C113.722 7.72652 114.01 7.39435 114.372 7.16235C114.735 6.93035 115.157 6.80846 115.587 6.81146C116.185 6.81778 116.757 7.05807 117.179 7.4808C117.602 7.90354 117.842 8.47508 117.849 9.07289" fill="#FF4C4C"/>
<path d="M119.761 19.4158C119.757 19.4864 119.727 19.553 119.676 19.602C119.625 19.6509 119.557 19.6783 119.486 19.6786C119.434 19.6798 119.383 19.6672 119.337 19.6421C119.292 19.6171 119.253 19.5804 119.226 19.5358L118.835 18.9486H118.531V19.3872C118.531 19.4643 118.5 19.5382 118.446 19.5928C118.391 19.6473 118.317 19.6779 118.24 19.6779C118.163 19.6779 118.089 19.6473 118.034 19.5928C117.98 19.5382 117.949 19.4643 117.949 19.3872V17.7043C117.948 17.6654 117.955 17.6266 117.969 17.5903C117.984 17.5541 118.005 17.5212 118.033 17.4936C118.06 17.466 118.093 17.4444 118.13 17.43C118.166 17.4157 118.205 17.4089 118.244 17.41H118.825C119.335 17.41 119.682 17.7215 119.682 18.1729C119.684 18.2903 119.658 18.4066 119.606 18.5118C119.554 18.617 119.477 18.708 119.382 18.7772L119.676 19.1929C119.726 19.257 119.754 19.3349 119.758 19.4158H119.761ZM118.528 18.44H118.825C118.894 18.44 118.961 18.4125 119.01 18.3635C119.059 18.3144 119.086 18.2479 119.086 18.1786C119.086 18.1093 119.059 18.0428 119.01 17.9938C118.961 17.9447 118.894 17.9172 118.825 17.9172H118.528V18.44Z" fill="#FF4C4C"/>
<path d="M121.314 18.5301C121.327 19.0193 121.194 19.5015 120.932 19.9147C120.67 20.3279 120.29 20.6535 119.841 20.8497C119.393 21.0458 118.896 21.1037 118.415 21.0159C117.933 20.928 117.489 20.6985 117.139 20.3566C116.788 20.0147 116.548 19.5761 116.449 19.0968C116.349 18.6176 116.395 18.1196 116.58 17.6666C116.766 17.2135 117.082 16.8261 117.489 16.5539C117.895 16.2817 118.374 16.1371 118.864 16.1386C119.182 16.1324 119.499 16.1895 119.795 16.3068C120.091 16.424 120.361 16.599 120.589 16.8215C120.817 17.0441 120.999 17.3097 121.123 17.603C121.247 17.8964 121.312 18.2115 121.314 18.5301ZM117.011 18.5301C117.011 19.5944 117.798 20.4401 118.878 20.4401C119.928 20.4401 120.701 19.5944 120.701 18.5444C120.701 17.4944 119.928 16.6186 118.864 16.6186C117.799 16.6186 117.007 17.4758 117.007 18.5286" fill="#FF4C4C"/>
<path d="M5.42681 20.3128C5.67332 20.7395 5.78775 21.2297 5.75564 21.7214C5.72352 22.2132 5.54629 22.6844 5.24637 23.0754C4.94645 23.4664 4.53731 23.7597 4.07069 23.9182C3.60407 24.0766 3.10093 24.0932 2.62492 23.9657C2.1489 23.8382 1.72139 23.5724 1.39644 23.2019C1.0715 22.8314 0.863726 22.3729 0.799397 21.8843C0.735068 21.3957 0.817074 20.899 1.03504 20.4571C1.25302 20.0151 1.59716 19.6477 2.02395 19.4013C2.59609 19.0711 3.27597 18.9815 3.91409 19.1525C4.55222 19.3234 5.09634 19.7407 5.42681 20.3128Z" fill="#FF4C4C"/>
<path d="M17.6094 24.1C16.6315 24.0986 15.6579 23.969 14.7137 23.7143C11.907 22.96 9.5073 21.1367 8.0285 18.6348C6.5497 16.1329 6.10942 13.1514 6.80199 10.3288C7.49455 7.50627 9.26487 5.06716 11.7338 3.53389C14.2027 2.00063 17.1738 1.49514 20.0109 2.12569C20.284 2.18108 20.5433 2.29037 20.7736 2.44718C21.0039 2.60398 21.2007 2.80514 21.3524 3.0389C21.504 3.27266 21.6076 3.53431 21.6569 3.80856C21.7062 4.08281 21.7004 4.36414 21.6397 4.6361C21.579 4.90805 21.4646 5.16518 21.3034 5.39242C21.1421 5.61966 20.9372 5.81247 20.7005 5.95955C20.4638 6.10664 20.2002 6.20505 19.9251 6.24903C19.6499 6.29301 19.3687 6.28167 19.098 6.21569C17.7852 5.92302 16.4157 6.01886 15.1565 6.49149C13.8973 6.96413 12.8029 7.79312 12.0069 8.87729C11.2109 9.96145 10.7478 11.2539 10.674 12.5969C10.6002 13.9398 10.919 15.2752 11.5914 16.4401C12.2638 17.6049 13.2608 18.5488 14.4607 19.1565C15.6605 19.7643 17.0114 20.0095 18.3483 19.8624C19.6852 19.7153 20.9504 19.1822 21.9894 18.3282C23.0284 17.4741 23.7964 16.336 24.1994 15.0528C24.2818 14.7902 24.4151 14.5463 24.5917 14.3352C24.7683 14.1241 24.9847 13.9498 25.2287 13.8223C25.7214 13.5648 26.2962 13.5136 26.8266 13.68C27.0892 13.7623 27.3331 13.8956 27.5442 14.0722C27.7553 14.2488 27.9296 14.4653 28.0571 14.7092C28.1846 14.9532 28.2628 15.2198 28.2872 15.494C28.3116 15.7682 28.2818 16.0445 28.1994 16.3071C27.4907 18.5621 26.0825 20.5329 24.1787 21.934C22.275 23.3351 19.9746 24.0937 17.6109 24.1" fill="#FF4C4C"/>
<path d="M27.6986 7.45423C27.9417 7.87524 28.0563 8.3582 28.0281 8.84355C28 9.3289 27.8304 9.79539 27.5403 10.1855C27.2501 10.5756 26.8521 10.8722 26.3954 11.0388C25.9387 11.2053 25.4432 11.2345 24.97 11.1228C24.8523 11.0784 24.7321 11.0407 24.61 11.0099L24.6643 11.0314C24.6479 11.0257 24.6312 11.0209 24.6143 11.0171C23.6302 10.7546 22.5822 10.8929 21.6999 11.4016C20.8176 11.9104 20.1729 12.7482 19.9072 13.7314C19.902 13.7483 19.8977 13.7655 19.8943 13.7828C19.8943 13.7642 19.8943 13.7442 19.9029 13.7242C19.8687 13.8454 19.8416 13.9685 19.8214 14.0928C19.682 14.5607 19.408 14.9774 19.0337 15.291C18.6594 15.6045 18.2013 15.8012 17.7161 15.8565C17.231 15.9118 16.7403 15.8234 16.305 15.6022C15.8697 15.3809 15.509 15.0366 15.2677 14.6121C15.0265 14.1876 14.9153 13.7015 14.948 13.2143C14.9807 12.7271 15.1558 12.2603 15.4516 11.8718C15.7474 11.4833 16.1509 11.1903 16.6118 11.0292C17.0728 10.8681 17.5709 10.846 18.0443 10.9657C18.1386 10.9999 18.2343 11.0299 18.33 11.0571C18.8218 11.1928 19.3358 11.2294 19.8419 11.1647C20.348 11.1 20.8362 10.9353 21.2781 10.6802C21.7199 10.4251 22.1067 10.0847 22.4158 9.67876C22.7249 9.27282 22.9502 8.80947 23.0786 8.31566C23.1043 8.21852 23.1257 8.11995 23.1443 8.01995C23.2769 7.5485 23.5457 7.12664 23.9169 6.80715C24.288 6.48766 24.7452 6.28472 25.2311 6.22373C25.7171 6.16274 26.2102 6.24641 26.6488 6.46426C27.0875 6.68211 27.4521 7.02448 27.6972 7.44852" fill="#FF4C4C"/>
</svg>
